<mxfile host="app.diagrams.net" modified="2022-07-11T22:20:55.432Z" agent="5.0 (X11; Linux x86_64) AppleWebKit/537.36 (KHTML, like Gecko) Chrome/103.0.5060.114 Safari/537.36" etag="jAo7Ej2tnReO5Vko9dgp" version="20.0.4" type="github">
  <diagram id="EJW0XWAwsS02BqIQmGmw" name="Page-1">
    <mxGraphModel dx="1185" dy="638" grid="1" gridSize="10" guides="1" tooltips="1" connect="1" arrows="1" fold="1" page="1" pageScale="1" pageWidth="850" pageHeight="1100" math="0" shadow="0">
      <root>
        <mxCell id="0" />
        <mxCell id="1" parent="0" />
        <mxCell id="zrfV_pOzWzv9Eb-I9XOB-12" style="edgeStyle=orthogonalEdgeStyle;rounded=0;orthogonalLoop=1;jettySize=auto;html=1;entryX=0;entryY=0.25;entryDx=0;entryDy=0;" parent="1" source="zrfV_pOzWzv9Eb-I9XOB-2" target="zrfV_pOzWzv9Eb-I9XOB-4" edge="1">
          <mxGeometry relative="1" as="geometry">
            <Array as="points">
              <mxPoint x="1150" y="183" />
              <mxPoint x="1150" y="323" />
              <mxPoint x="1310" y="323" />
              <mxPoint x="1310" y="372" />
            </Array>
          </mxGeometry>
        </mxCell>
        <mxCell id="zrfV_pOzWzv9Eb-I9XOB-19" style="edgeStyle=orthogonalEdgeStyle;rounded=0;orthogonalLoop=1;jettySize=auto;html=1;" parent="1" source="zrfV_pOzWzv9Eb-I9XOB-2" target="zrfV_pOzWzv9Eb-I9XOB-18" edge="1">
          <mxGeometry relative="1" as="geometry">
            <Array as="points">
              <mxPoint x="620" y="190" />
            </Array>
          </mxGeometry>
        </mxCell>
        <mxCell id="nUNrwBwxRmrl5PXfhUrE-2" style="edgeStyle=orthogonalEdgeStyle;rounded=0;orthogonalLoop=1;jettySize=auto;html=1;exitX=0.5;exitY=1;exitDx=0;exitDy=0;entryX=0.5;entryY=0;entryDx=0;entryDy=0;" edge="1" parent="1" source="zrfV_pOzWzv9Eb-I9XOB-2" target="zrfV_pOzWzv9Eb-I9XOB-22">
          <mxGeometry relative="1" as="geometry">
            <Array as="points">
              <mxPoint x="945" y="325" />
              <mxPoint x="1060" y="325" />
            </Array>
          </mxGeometry>
        </mxCell>
        <mxCell id="nUNrwBwxRmrl5PXfhUrE-3" style="edgeStyle=orthogonalEdgeStyle;rounded=0;orthogonalLoop=1;jettySize=auto;html=1;exitX=0.5;exitY=1;exitDx=0;exitDy=0;" edge="1" parent="1" source="zrfV_pOzWzv9Eb-I9XOB-2" target="zrfV_pOzWzv9Eb-I9XOB-21">
          <mxGeometry relative="1" as="geometry" />
        </mxCell>
        <mxCell id="zrfV_pOzWzv9Eb-I9XOB-2" value="Moderator/User&lt;br&gt;- Id [Long]&lt;br&gt;- Name [String]&lt;br&gt;- Surname [String]&lt;br&gt;- Role [Role]&lt;br&gt;- Department [Department]" style="html=1;" parent="1" vertex="1">
          <mxGeometry x="860" y="145" width="170" height="160" as="geometry" />
        </mxCell>
        <mxCell id="zrfV_pOzWzv9Eb-I9XOB-13" style="edgeStyle=orthogonalEdgeStyle;rounded=0;orthogonalLoop=1;jettySize=auto;html=1;entryX=1;entryY=0.25;entryDx=0;entryDy=0;" parent="1" source="zrfV_pOzWzv9Eb-I9XOB-4" target="zrfV_pOzWzv9Eb-I9XOB-6" edge="1">
          <mxGeometry relative="1" as="geometry">
            <Array as="points">
              <mxPoint x="1375" y="390" />
              <mxPoint x="1375" y="550" />
            </Array>
          </mxGeometry>
        </mxCell>
        <mxCell id="nUNrwBwxRmrl5PXfhUrE-6" style="edgeStyle=orthogonalEdgeStyle;rounded=0;orthogonalLoop=1;jettySize=auto;html=1;exitX=0.5;exitY=1;exitDx=0;exitDy=0;" edge="1" parent="1" source="zrfV_pOzWzv9Eb-I9XOB-4" target="nUNrwBwxRmrl5PXfhUrE-1">
          <mxGeometry relative="1" as="geometry" />
        </mxCell>
        <mxCell id="zrfV_pOzWzv9Eb-I9XOB-4" value="Role&lt;br&gt;- Id&lt;br&gt;- Role Name [ENUM]&lt;br&gt;User user" style="html=1;" parent="1" vertex="1">
          <mxGeometry x="1240" y="355" width="130" height="70" as="geometry" />
        </mxCell>
        <mxCell id="zrfV_pOzWzv9Eb-I9XOB-6" value="RoleTypes&lt;br&gt;Admin&lt;br&gt;User" style="shape=parallelogram;perimeter=parallelogramPerimeter;whiteSpace=wrap;html=1;fixedSize=1;direction=west;" parent="1" vertex="1">
          <mxGeometry x="1370" y="550" width="120" height="60" as="geometry" />
        </mxCell>
        <mxCell id="nUNrwBwxRmrl5PXfhUrE-5" style="edgeStyle=orthogonalEdgeStyle;rounded=0;orthogonalLoop=1;jettySize=auto;html=1;exitX=0.5;exitY=1;exitDx=0;exitDy=0;" edge="1" parent="1" source="zrfV_pOzWzv9Eb-I9XOB-18" target="zrfV_pOzWzv9Eb-I9XOB-23">
          <mxGeometry relative="1" as="geometry" />
        </mxCell>
        <mxCell id="zrfV_pOzWzv9Eb-I9XOB-18" value="Department&lt;br&gt;- Id&lt;br&gt;- Name&lt;br&gt;- Employees list [Employee]" style="html=1;" parent="1" vertex="1">
          <mxGeometry x="600" y="145" width="160" height="90" as="geometry" />
        </mxCell>
        <mxCell id="zrfV_pOzWzv9Eb-I9XOB-21" value="«interface»&lt;br&gt;&lt;b&gt;EmployeeManagement&lt;br&gt;- Add user to xyz department&lt;br&gt;- Delete user from department&lt;br&gt;&lt;br&gt;- Select employee&lt;br&gt;&lt;br&gt;&lt;/b&gt;" style="html=1;" parent="1" vertex="1">
          <mxGeometry x="740" y="340" width="200" height="120" as="geometry" />
        </mxCell>
        <mxCell id="zrfV_pOzWzv9Eb-I9XOB-22" value="«interface»&lt;br&gt;&lt;b&gt;ModeratorManagement&lt;br&gt;- Add user&lt;br&gt;-Modify user&lt;br&gt;- Delete user&lt;br&gt;&lt;/b&gt;" style="html=1;" parent="1" vertex="1">
          <mxGeometry x="960" y="340" width="200" height="100" as="geometry" />
        </mxCell>
        <mxCell id="zrfV_pOzWzv9Eb-I9XOB-23" value="«interface»&lt;br&gt;&lt;b&gt;DepartmentManagement&lt;br&gt;- Add department&lt;br&gt;- Modify department&lt;br&gt;- Delete department&lt;br&gt;&lt;br&gt;- Select all employees from xyz department&lt;br&gt;&lt;/b&gt;" style="html=1;" parent="1" vertex="1">
          <mxGeometry x="390" y="340" width="290" height="120" as="geometry" />
        </mxCell>
        <mxCell id="nUNrwBwxRmrl5PXfhUrE-1" value="«interface»&lt;br&gt;&lt;b&gt;RoleManagement&lt;br&gt;&lt;/b&gt;- Add role&lt;br&gt;- Delete role" style="html=1;" vertex="1" parent="1">
          <mxGeometry x="1080" y="540" width="110" height="70" as="geometry" />
        </mxCell>
      </root>
    </mxGraphModel>
  </diagram>
</mxfile>
